<?xml version="1.0" standalone="no"?>
<!DOCTYPE svg PUBLIC "-//W3C//DTD SVG 20010904//EN"
 "http://www.w3.org/TR/2001/REC-SVG-20010904/DTD/svg10.dtd">
<svg version="1.0" xmlns="http://www.w3.org/2000/svg"
 width="630.000000pt" height="630.000000pt" viewBox="0 0 630.000000 630.000000"
 preserveAspectRatio="xMidYMid meet">
<metadata>
Created by potrace 1.13, written by Peter Selinger 2001-2015
</metadata>
<g transform="translate(0.000000,630.000000) scale(0.100000,-0.100000)"
fill="#147EA6" stroke="none">
<path d="M0 3150 l0 -3150 3150 0 3150 0 0 3150 0 3150 -3150 0 -3150 0 0
-3150z m3187 2255 c2 -17 25 -259 53 -540 51 -526 76 -770 86 -842 4 -35 16
-52 74 -109 l70 -68 0 -78 c0 -77 0 -78 -25 -78 l-25 0 0 -285 1 -284 81 -3
80 -3 -1 -137 c-2 -133 -1 -137 21 -152 17 -11 846 -360 1161 -490 31 -13 37
-20 37 -45 0 -24 -4 -31 -20 -31 -20 0 -20 -8 -22 -698 l-3 -697 -1600 0
-1600 0 -3 698 -2 697 -25 0 c-21 0 -25 5 -25 29 0 27 6 32 78 61 42 18 171
73 286 121 114 49 210 89 212 89 2 0 43 17 91 39 49 21 193 82 320 136 l232
98 3 141 3 141 78 3 77 3 0 284 0 285 -24 0 c-22 0 -23 4 -25 71 l-2 71 76 77
75 78 30 294 c61 608 101 1006 106 1069 7 87 9 89 40 87 23 -2 28 -8 31 -32z
m-1727 -3905 l0 -639 -231 2 -231 2 2 523 c0 356 -2 522 -10 522 -5 0 -10 6
-10 14 0 8 94 53 238 114 130 55 238 101 240 101 1 1 2 -287 2 -639z m3645
528 c28 -11 73 -30 100 -43 28 -13 63 -27 79 -31 29 -7 48 -35 27 -42 -9 -3
-11 -124 -11 -525 l2 -522 -231 -2 -231 -3 0 639 0 640 108 -46 c59 -25 130
-54 157 -65z"/>
<path d="M3079 3551 l-29 -29 0 -201 0 -201 106 0 105 0 -3 201 -3 201 -33 29
c-45 41 -102 41 -143 0z"/>
<path d="M3035 2029 c-38 -5 -72 -13 -75 -17 -3 -4 -14 -9 -25 -10 -28 -5 -68
-27 -103 -57 -95 -80 -102 -240 -14 -322 55 -50 119 -66 336 -83 96 -7 153
-17 183 -30 40 -18 43 -21 43 -59 0 -33 -5 -44 -32 -64 -50 -37 -105 -51 -203
-52 -137 0 -305 61 -305 111 0 22 -18 17 -26 -8 -4 -13 -20 -50 -35 -82 -35
-73 -36 -85 -5 -79 13 3 45 -4 71 -16 85 -38 197 -54 325 -48 137 7 227 32
292 82 68 51 91 94 90 168 0 77 -21 126 -68 165 -49 40 -116 59 -254 72 -233
22 -283 35 -299 82 -24 68 41 115 172 125 124 9 292 -48 317 -107 7 -16 16
-27 21 -24 11 6 99 168 99 181 0 6 -11 8 -24 6 -13 -3 -66 9 -119 26 -80 25
-243 54 -282 50 -5 -1 -41 -6 -80 -10z"/>
<path d="M1712 2018 c3 -7 15 -15 29 -18 l24 -6 0 -374 0 -374 -24 -6 c-14 -3
-26 -11 -29 -18 -3 -9 31 -12 137 -12 116 0 141 3 141 14 0 8 -10 16 -22 18
-23 3 -23 6 -26 156 l-3 152 205 0 c220 0 288 11 354 59 84 60 101 239 30 325
-67 81 -148 96 -536 96 -219 0 -283 -3 -280 -12z m641 -144 c42 -22 47 -30 47
-84 0 -95 -41 -110 -295 -110 l-165 0 0 105 0 105 190 0 c157 0 197 -3 223
-16z"/>
<path d="M3690 2015 c0 -8 8 -15 18 -15 24 0 64 -44 142 -155 35 -49 97 -135
137 -190 l73 -100 0 -157 c0 -134 -2 -158 -15 -158 -8 0 -15 -7 -15 -15 0 -12
20 -15 120 -15 66 0 120 3 120 8 0 4 -9 15 -20 25 -18 15 -20 29 -20 156 0
128 2 141 23 172 234 339 293 418 322 425 14 3 25 12 25 20 0 11 -26 14 -130
14 -109 0 -130 -2 -130 -15 0 -8 9 -15 21 -15 16 0 19 -4 13 -22 -5 -18 -175
-260 -204 -291 -9 -10 -200 271 -200 294 0 9 9 19 20 22 11 3 20 10 20 16 0 8
-51 11 -160 11 -136 0 -160 -2 -160 -15z"/>
</g>
</svg>
